<svg display="none" version="1.1" xmlns="http://www.w3.org/2000/svg" xmlns:xlink="http://www.w3.org/1999/xlink" width="119" height="32" viewBox="0 0 119 32">
    <symbol id="shape-facebook">
        <path class="path1" d="M3.911 32v-15.453h-3.547v-5.399h3.651v-4.47c0 0 0.21-5.678 6.365-5.678 6.151 0 6.151 0 6.151 0v5.306h-3.65c0 0-1.771 0-1.771 1.583 0 1.582 0 3.351 0 3.351h5.526l-0.729 5.4h-4.692v15.36h-7.304z"></path>
    </symbol>
    <symbol id="shape-twitter">
        <path class="path1" d="M37.596 4.669v0 0zM26.154 1.001c-4.217 0-7.632 3.503-7.632 7.827 0 0.614 0.067 1.209 0.197 1.78-6.341-0.325-11.962-3.44-15.728-8.175-0.657 1.156-1.033 2.498-1.033 3.934 0 2.714 1.347 5.109 3.396 6.513-1.251-0.041-2.428-0.393-3.458-0.979 0 0.033 0 0.067 0 0.098 0 3.792 2.63 6.956 6.121 7.675-0.64 0.178-1.314 0.274-2.009 0.274-0.491 0-0.969-0.049-1.436-0.141 0.972 3.107 3.789 5.371 7.129 5.434-2.612 2.099-5.903 3.352-9.477 3.352-0.615 0-1.222-0.036-1.821-0.109 3.379 2.222 7.391 3.518 11.698 3.518 14.039 0 21.712-11.925 21.712-22.266 0-0.339-0.008-0.679-0.023-1.010 1.492-1.106 2.785-2.483 3.809-4.053-1.369 0.622-2.84 1.042-4.383 1.232 1.576-0.969 2.787-2.502 3.355-4.329-1.477 0.896-3.107 1.547-4.846 1.898-1.393-1.522-3.377-2.472-5.571-2.473v0z"></path>
    </symbol>
    <symbol id="shape-linkedin">
        <path class="path1" d="M29.629 0h-27.269c-1.3 0-2.36 1.033-2.36 2.306v27.384c0 1.276 1.059 2.31 2.36 2.31h27.269c1.303 0 2.37-1.034 2.37-2.31v-27.384c0-1.273-1.065-2.306-2.37-2.306zM9.487 27.266h-4.754v-15.27h4.755v15.27zM7.112 9.909c-1.524 0-2.755-1.235-2.755-2.754s1.231-2.752 2.755-2.752c1.52 0 2.754 1.234 2.754 2.752s-1.234 2.754-2.754 2.754zM27.272 27.266h-4.745v-7.425c0-1.77-0.033-4.050-2.467-4.050-2.471 0-2.85 1.93-2.85 3.922v7.551h-4.744v-15.268h4.553v2.087h0.065c0.633-1.2 2.183-2.466 4.494-2.466 4.806 0 5.694 3.161 5.694 7.273v8.375z"></path>
    </symbol>

    <symbol id="shape-facebook-footer" viewBox="0 0 34 34">
        <path fill="#395bac" d="M17 33.046c-2.218 0-4.3-0.418-6.245-1.253 -1.945-0.836-3.64-1.976-5.083-3.419 -1.444-1.444-2.583-3.139-3.419-5.084C1.417 21.346 1 19.264 1 17.046s0.417-4.3 1.253-6.245c0.836-1.945 1.975-3.647 3.419-5.105C7.115 4.236 8.81 3.09 10.755 2.253 12.7 1.417 14.782 1 17 1c2.218 0 4.3 0.417 6.245 1.253 1.944 0.837 3.639 1.983 5.082 3.442 1.444 1.458 2.584 3.161 3.419 5.105 0.836 1.945 1.255 4.027 1.255 6.245s-0.419 4.3-1.255 6.244c-0.835 1.945-1.975 3.64-3.419 5.084 -1.443 1.443-3.138 2.583-5.082 3.419C21.3 32.628 19.218 33.046 17 33.046zM12.852 17.592h2.371v7.203h2.963v-7.203h2.611l0.351-2.962h-2.962v-1.504c0-0.243 0.061-0.455 0.182-0.638 0.121-0.182 0.259-0.273 0.411-0.273h2.369V9.296h-2.369c-0.974 0-1.809 0.38-2.508 1.14 -0.699 0.761-1.048 1.672-1.048 2.736v1.458h-2.371V17.592z"/>
        <path fill="#ffffff" d="M18.367 12.487c0.121-0.182 0.259-0.273 0.411-0.273h2.369V9.296h-2.369c-0.974 0-1.809 0.38-2.508 1.14 -0.699 0.761-1.048 1.672-1.048 2.736v1.458h-2.371v2.962h2.371v7.203h2.963v-7.203h2.611l0.351-2.962h-2.962v-1.504C18.186 12.882 18.246 12.67 18.367 12.487z"/>
    </symbol>

    <symbol id="shape-linkedin-footer" viewBox="0 0 34 34">
        <path fill="#0077b5" d="M16.978 33c-2.216 0-4.295-0.418-6.236-1.252 -1.942-0.834-3.634-1.979-5.076-3.436 -1.441-1.457-2.579-3.156-3.414-5.098C1.417 21.273 1 19.193 1 16.978c0-2.217 0.417-4.295 1.251-6.236 0.835-1.942 1.973-3.634 3.414-5.076 1.442-1.441 3.134-2.579 5.076-3.414C12.683 1.417 14.762 1 16.978 1c2.214 0 4.293 0.417 6.236 1.251 1.941 0.835 3.642 1.973 5.098 3.414 1.456 1.442 2.602 3.134 3.438 5.076 0.834 1.941 1.25 4.02 1.25 6.236 0 2.215-0.416 4.295-1.25 6.237 -0.836 1.941-1.981 3.641-3.438 5.098s-3.156 2.602-5.098 3.436C21.271 32.582 19.191 33 16.978 33zM12.472 7.919c-0.486 0-0.896 0.175-1.23 0.523 -0.334 0.349-0.5 0.767-0.5 1.251 0 0.486 0.166 0.896 0.5 1.229s0.744 0.501 1.23 0.501c0.484 0 0.894-0.167 1.229-0.501 0.333-0.334 0.5-0.743 0.5-1.229 0-0.485-0.167-0.902-0.5-1.251C13.365 8.094 12.956 7.919 12.472 7.919zM13.882 12.47H11.06v9.786h2.822V12.47zM15.247 22.256h2.823v-6.28c0.211-0.213 0.454-0.381 0.728-0.502 0.212-0.09 0.454-0.151 0.729-0.183 0.273-0.028 0.546 0.031 0.82 0.183 0.12 0.062 0.233 0.177 0.341 0.342 0.105 0.167 0.158 0.328 0.158 0.478v5.962h2.777v-5.962c0-0.636-0.175-1.257-0.523-1.864 -0.35-0.607-0.812-1.079-1.389-1.411 -0.516-0.275-1.114-0.425-1.798-0.456 -0.683-0.03-1.297 0.091-1.843 0.363V12.47h-2.823V22.256z"/>
        <path class="canhide" fill="#ffffff" d="M12.472 7.919c-0.486 0-0.896 0.175-1.23 0.523 -0.334 0.349-0.5 0.767-0.5 1.251 0 0.486 0.166 0.896 0.5 1.229s0.744 0.501 1.23 0.501c0.484 0 0.894-0.167 1.229-0.501 0.333-0.334 0.5-0.743 0.5-1.229 0-0.485-0.167-0.902-0.5-1.251C13.365 8.094 12.956 7.919 12.472 7.919z"/>
        <rect class="canhide" x="11.06" y="12.47" fill="#ffffff" width="2.822" height="9.786"/>
        <path class="canhide"  d="M23.1 14.429c-0.35-0.607-0.812-1.079-1.389-1.411 -0.516-0.275-1.114-0.425-1.798-0.456 -0.683-0.03-1.297 0.091-1.843 0.363V12.47h-2.823v9.786h2.823v-6.28c0.211-0.213 0.454-0.381 0.728-0.502 0.212-0.09 0.454-0.151 0.729-0.183 0.273-0.028 0.546 0.031 0.82 0.183 0.12 0.062 0.233 0.177 0.341 0.342 0.105 0.167 0.158 0.328 0.158 0.478v5.962h2.777v-5.962C23.623 15.658 23.448 15.037 23.1 14.429z"/>
    </symbol>

    <symbol id="shape-facebook-footer-trans" viewBox="0 0 34 34">
        <path fill="#ffffff" d="M17 33.046c-2.218 0-4.3-0.418-6.245-1.253 -1.945-0.836-3.64-1.976-5.083-3.419 -1.444-1.444-2.583-3.139-3.419-5.084C1.417 21.346 1 19.264 1 17.046s0.417-4.3 1.253-6.245c0.836-1.945 1.975-3.647 3.419-5.105C7.115 4.236 8.81 3.09 10.755 2.253 12.7 1.417 14.782 1 17 1c2.218 0 4.3 0.417 6.245 1.253 1.944 0.837 3.639 1.983 5.082 3.442 1.444 1.458 2.584 3.161 3.419 5.105 0.836 1.945 1.255 4.027 1.255 6.245s-0.419 4.3-1.255 6.244c-0.835 1.945-1.975 3.64-3.419 5.084 -1.443 1.443-3.138 2.583-5.082 3.419C21.3 32.628 19.218 33.046 17 33.046zM12.852 17.592h2.371v7.203h2.963v-7.203h2.611l0.351-2.962h-2.962v-1.504c0-0.243 0.061-0.455 0.182-0.638 0.121-0.182 0.259-0.273 0.411-0.273h2.369V9.296h-2.369c-0.974 0-1.809 0.38-2.508 1.14 -0.699 0.761-1.048 1.672-1.048 2.736v1.458h-2.371V17.592z"/>
    </symbol>

    <symbol id="shape-linkedin-footer-trans" viewBox="0 0 34 34">
        <path fill="#ffffff" d="M16.978 33c-2.216 0-4.295-0.418-6.236-1.252 -1.942-0.834-3.634-1.979-5.076-3.436 -1.441-1.457-2.579-3.156-3.414-5.098C1.417 21.273 1 19.193 1 16.978c0-2.217 0.417-4.295 1.251-6.236 0.835-1.942 1.973-3.634 3.414-5.076 1.442-1.441 3.134-2.579 5.076-3.414C12.683 1.417 14.762 1 16.978 1c2.214 0 4.293 0.417 6.236 1.251 1.941 0.835 3.642 1.973 5.098 3.414 1.456 1.442 2.602 3.134 3.438 5.076 0.834 1.941 1.25 4.02 1.25 6.236 0 2.215-0.416 4.295-1.25 6.237 -0.836 1.941-1.981 3.641-3.438 5.098s-3.156 2.602-5.098 3.436C21.271 32.582 19.191 33 16.978 33zM12.472 7.919c-0.486 0-0.896 0.175-1.23 0.523 -0.334 0.349-0.5 0.767-0.5 1.251 0 0.486 0.166 0.896 0.5 1.229s0.744 0.501 1.23 0.501c0.484 0 0.894-0.167 1.229-0.501 0.333-0.334 0.5-0.743 0.5-1.229 0-0.485-0.167-0.902-0.5-1.251C13.365 8.094 12.956 7.919 12.472 7.919zM13.882 12.47H11.06v9.786h2.822V12.47zM15.247 22.256h2.823v-6.28c0.211-0.213 0.454-0.381 0.728-0.502 0.212-0.09 0.454-0.151 0.729-0.183 0.273-0.028 0.546 0.031 0.82 0.183 0.12 0.062 0.233 0.177 0.341 0.342 0.105 0.167 0.158 0.328 0.158 0.478v5.962h2.777v-5.962c0-0.636-0.175-1.257-0.523-1.864 -0.35-0.607-0.812-1.079-1.389-1.411 -0.516-0.275-1.114-0.425-1.798-0.456 -0.683-0.03-1.297 0.091-1.843 0.363V12.47h-2.823V22.256z"/>
    </symbol>
</svg>