<?xml version="1.0" encoding="utf-8"?>
<!-- Generator: Adobe Illustrator 18.1.1, SVG Export Plug-In . SVG Version: 6.00 Build 0)  -->
<svg version="1.1" id="Layer_1" xmlns="http://www.w3.org/2000/svg" xmlns:xlink="http://www.w3.org/1999/xlink" x="0px" y="0px"
	 viewBox="0 279.3 233.4 233.3" enable-background="new 0 279.3 233.4 233.3" xml:space="preserve">
<g>
	<g>
		<g>
			
				<linearGradient id="SVGID_1_" gradientUnits="userSpaceOnUse" x1="10.2875" y1="776.2625" x2="176.0788" y2="610.4712" gradientTransform="matrix(1.293 0 0 -1.293 0 1303.397)">
				<stop  offset="0" style="stop-color:#068643"/>
				<stop  offset="3.711969e-02" style="stop-color:#298B43"/>
				<stop  offset="0.1721" style="stop-color:#5B9C41"/>
				<stop  offset="0.3135" style="stop-color:#7AAC3F"/>
				<stop  offset="0.4609" style="stop-color:#92BA3C"/>
				<stop  offset="0.617" style="stop-color:#A3C639"/>
				<stop  offset="0.7876" style="stop-color:#AECE37"/>
				<stop  offset="1" style="stop-color:#B2D136"/>
			</linearGradient>
			<path fill="url(#SVGID_1_)" d="M194.6,345.5c1.3,0,7.4,0,7.4,0c17.3,0,31.4-14.1,31.4-31.4s-14.1-31.4-31.4-31.4H129
				c-3.9,0-7,3.1-7,7c0,0,0,73.1,0,101.5l-19.4-19c7.6-9.7,12.2-22,12.2-35.3c0.1-31.8-25.6-57.5-57.4-57.5
				C25.7,279.3,0,305,0,336.7c0,31.8,25.7,57.5,57.4,57.5c13.3,0,25.6-4.7,35.3-12.3l19.3,19.3c-28.4,0-101.5,0-101.5,0
				c-3.9,0-7,3.1-7,7v97.4c0,3.9,3.1,7,7,7h118.4c3.9,0,7-3.1,7-7c0,0,0-57.3,0-80.4c18.5,18.5,85.3,85.3,85.3,85.3
				c2.1,2.1,5,2.6,7.6,1.6c2.6-1,4.4-3.6,4.4-6.5V387.3c0-1.8-0.8-3.6-2.1-4.9C231.3,382.2,208.3,359.2,194.6,345.5z M136,296.9
				c11.5,0,65.9,0,65.9,0c9.6,0,17.3,7.8,17.3,17.3s-7.8,17.3-17.3,17.3c0,0-54.6,0-65.9,0C136,315.8,136,300.8,136,296.9z
				 M57.4,380.2c-23.9,0-43.3-19.4-43.3-43.4c0-23.9,19.5-43.4,43.4-43.4c23.9,0.1,43.3,19.5,43.3,43.4c0,9.4-3.1,18.1-8.1,25.2
				l-28.4-28.4c-2.7-2.7-7.2-2.7-10,0c-2.7,2.7-2.7,7.2,0,10l28.4,28.4C75.6,377.2,66.9,380.2,57.4,380.2z M121.9,498.6
				c-11.6,0-92.7,0-104.3,0c0-4.8,0-19.1,0-34.7h72.8c3.9,0,7-3.1,7-7s-3.1-7-7-7H17.6c0-15.5,0-29.7,0-34.7c11.6,0,92.7,0,104.3,0
				C121.9,426.5,121.9,487.5,121.9,498.6z M219.3,488.6c-18-18-79.9-79.9-83.3-83.3c0-2.8,0-30,0-59.9c6.7,0,20.6,0,38.8,0
				c3.6,3.6,41,41,44.6,44.6C219.3,394.9,219.3,464.5,219.3,488.6z"/>
		</g>
	</g>
</g>
</svg>
