<svg display="none" version="1.1" xmlns="http://www.w3.org/2000/svg" xmlns:xlink="http://www.w3.org/1999/xlink" width="21" height="32" viewBox="0 0 21 32">

    <symbol id="shape-civil">
        <path class="path1" d="M32.322 14.701c0.173 0 0.351-0.059 0.497-0.172 0.356-0.276 0.416-0.784 0.14-1.14-0.275-0.351-0.783-0.416-1.135-0.141-0.356 0.276-0.416 0.789-0.14 1.14 0.157 0.205 0.395 0.313 0.637 0.313z" />
        <path class="path2" d="M30.33 12.146c0.173 0 0.351-0.059 0.497-0.173 0.356-0.275 0.416-0.783 0.14-1.139-0.275-0.351-0.783-0.416-1.134-0.141-0.351 0.276-0.416 0.783-0.14 1.14 0.157 0.205 0.394 0.313 0.637 0.313z" />
        <path class="path3" d="M34.315 17.255c0.173 0 0.351-0.059 0.497-0.172 0.356-0.275 0.416-0.783 0.14-1.14-0.275-0.351-0.783-0.41-1.134-0.14-0.356 0.275-0.416 0.789-0.14 1.14 0.157 0.205 0.394 0.313 0.637 0.313z" />
        <path class="path4" d="M36.308 19.81c0.172 0 0.35-0.054 0.497-0.173 0.35-0.275 0.416-0.783 0.14-1.134-0.275-0.356-0.783-0.416-1.134-0.14-0.356 0.275-0.416 0.783-0.141 1.134 0.157 0.205 0.395 0.313 0.638 0.313z" />
        <path class="path5" d="M39.797 23.472c-0.356 0.275-0.416 0.783-0.141 1.135 0.157 0.205 0.394 0.313 0.638 0.313 0.172 0 0.35-0.054 0.497-0.172 0.35-0.27 0.416-0.783 0.14-1.135-0.275-0.351-0.784-0.416-1.134-0.14z" />
        <path class="path6" d="M27.699 9.279c0.157 0.206 0.4 0.308 0.637 0.308 0.173 0 0.351-0.054 0.497-0.168 0.356-0.275 0.416-0.788 0.141-1.139-0.276-0.351-0.783-0.416-1.135-0.14-0.357 0.275-0.416 0.783-0.14 1.14z" />
        <path class="path7" d="M42.924 26.167c-0.276-0.351-0.783-0.416-1.135-0.14-0.356 0.275-0.416 0.783-0.14 1.135 0.157 0.205 0.394 0.313 0.637 0.313 0.173 0 0.351-0.055 0.497-0.167 0.352-0.275 0.416-0.789 0.141-1.14z" />
        <path class="path8" d="M48.055 24.146c-0.27 0-0.519 0.080-0.73 0.217-1.908-1.231-4.586-2.265-7.802-3.040-0.115-0.629-0.664-1.106-1.325-1.106-0.462 0-0.87 0.233-1.114 0.588-3.086-0.575-6.542-0.933-10.201-1.030v-12.563c0.476-0.208 0.81-0.683 0.81-1.236s-0.334-1.028-0.81-1.236v-2.768c0-0.299-0.242-0.54-0.54-0.54h-2.929c-0.298 0-0.54 0.241-0.54 0.54v4.18l-15.022 15.031c-0.111-0.030-0.226-0.050-0.346-0.050-0.746 0-1.35 0.604-1.35 1.35 0 0.023 0.005 0.044 0.006 0.066-1.99 0.743-3.626 1.612-4.802 2.585-0.23 0.19-0.262 0.53-0.072 0.76 0.107 0.129 0.261 0.196 0.416 0.196 0.122 0 0.243-0.041 0.344-0.124 1.101-0.911 2.678-1.733 4.61-2.44 0.232 0.189 0.525 0.307 0.847 0.307 0.624 0 1.143-0.425 1.298-1 2.191-0.63 4.702-1.133 7.42-1.476 0.223 0.44 0.674 0.745 1.201 0.745 0.627 0 1.149-0.429 1.301-1.008 1.35-0.118 2.736-0.199 4.149-0.237v9.365c0 0.299 0.242 0.54 0.54 0.54s0.54-0.241 0.54-0.54v-27.709h1.849v2.228c-0.476 0.208-0.81 0.683-0.81 1.236s0.334 1.028 0.81 1.236v23.037c0 0.299 0.242 0.54 0.54 0.54s0.54-0.241 0.54-0.54v-9.393c3.565 0.097 6.967 0.456 10.003 1.025 0.142 0.595 0.672 1.038 1.31 1.038 0.436 0 0.82-0.211 1.067-0.531 3.093 0.744 5.67 1.724 7.463 2.876-0.013 0.076-0.023 0.153-0.023 0.234 0 0.181 0.037 0.354 0.102 0.511l-2.269 2.206c-0.158-0.064-0.329-0.102-0.51-0.102-0.746 0-1.35 0.604-1.35 1.35s0.604 1.35 1.35 1.35 1.35-0.604 1.35-1.35c0-0.167-0.034-0.325-0.090-0.473l2.297-2.232c0.147 0.055 0.304 0.089 0.47 0.089 0.746 0 1.35-0.604 1.35-1.35s-0.604-1.35-1.35-1.35zM17.422 19.4c-0.573 0.001-1.058 0.36-1.253 0.864-2.655 0.328-5.108 0.806-7.28 1.409l13.329-13.336-4.797 11.063zM18.558 20.018c-0.043-0.067-0.092-0.128-0.146-0.186l4.464-10.298v10.238c-1.477 0.040-2.918 0.124-4.318 0.245z" />
    </symbol>

    <symbol id="shape-wind" viewBox="0 0 21 32">
        <path class="path1" d="M20.807 16.394l-7.093-4.37c0.014-0.061 0.022-0.124 0.022-0.189 0-0.475-0.385-0.86-0.86-0.86-0.089 0-0.174 0.018-0.254 0.043l-0.25-0.453c-0.053-0.096-0.094-0.197-0.122-0.3-0.029-0.102-0.045-0.21-0.048-0.321l-0.244-7.299c0.195-0.158 0.322-0.396 0.322-0.666 0-0.475-0.385-0.86-0.86-0.86-0.035 0-0.068 0.006-0.102 0.010l-0.627-0.758c-0.269-0.327-0.72-0.452-1.122-0.315-0.4 0.139-0.676 0.516-0.687 0.938l-0.24 8.418c-0.378 0.090-0.659 0.428-0.659 0.834 0 0.475 0.385 0.86 0.86 0.86s0.86-0.385 0.86-0.86c0-0.295-0.149-0.555-0.375-0.71l0.243-8.524c0.003-0.136 0.096-0.262 0.223-0.306 0.133-0.044 0.28-0.004 0.368 0.103l0.559 0.676c-0.099 0.14-0.158 0.31-0.158 0.494 0 0.425 0.309 0.776 0.715 0.845l0.239 7.143c0.005 0.165 0.030 0.327 0.073 0.48 0.042 0.154 0.104 0.306 0.183 0.45l0.324 0.588c-0.048 0.107-0.077 0.226-0.077 0.351 0 0.475 0.385 0.86 0.86 0.86 0.156 0 0.299-0.044 0.425-0.117l7.147 4.403c0.116 0.070 0.178 0.213 0.153 0.344-0.027 0.138-0.138 0.246-0.273 0.269l-0.932 0.158c-0.142-0.277-0.428-0.469-0.762-0.469-0.243 0-0.462 0.102-0.619 0.265l-6.321-3.374c-0.148-0.079-0.306-0.141-0.471-0.182-0.161-0.040-0.329-0.062-0.501-0.062h-0.335c-0.132-0.305-0.435-0.519-0.789-0.519-0.475 0-0.86 0.385-0.86 0.86 0 0.021 0.004 0.040 0.006 0.059l-7.57 4.087c-0.112 0.062-0.273 0.045-0.373-0.041-0.106-0.093-0.144-0.241-0.095-0.37l0.431-1.161c0.456-0.021 0.82-0.394 0.82-0.855 0-0.475-0.385-0.86-0.86-0.86s-0.86 0.385-0.86 0.86c0 0.239 0.098 0.455 0.256 0.611l-0.433 1.166c-0.148 0.395-0.033 0.848 0.289 1.13 0.186 0.16 0.423 0.249 0.668 0.249 0.172 0 0.341-0.044 0.486-0.124l7.56-4.082c0.147 0.118 0.331 0.191 0.534 0.191 0.351 0 0.652-0.211 0.785-0.512h0.337c0.114 0.001 0.228 0.014 0.335 0.041 0.11 0.027 0.215 0.068 0.314 0.121l6.411 3.421c0.031 0.447 0.399 0.8 0.853 0.8 0.369 0 0.681-0.234 0.803-0.56l1.006-0.17c0.415-0.070 0.749-0.397 0.832-0.815 0.079-0.417-0.11-0.844-0.47-1.063z" />
        <path class="path2" d="M4.525 14.505c0.093 0 0.189-0.024 0.272-0.079 0.244-0.151 0.316-0.467 0.165-0.708-0.151-0.244-0.468-0.316-0.708-0.168-0.244 0.151-0.316 0.471-0.165 0.712 0.096 0.158 0.265 0.244 0.437 0.244z" />
        <path class="path3" d="M2.775 15.595c0.093 0 0.186-0.024 0.272-0.076 0.241-0.151 0.316-0.471 0.165-0.712-0.151-0.244-0.468-0.316-0.712-0.165-0.241 0.151-0.313 0.467-0.165 0.708 0.1 0.158 0.268 0.244 0.44 0.244z" />
        <path class="path4" d="M6.275 13.415c0.096 0 0.189-0.027 0.275-0.079 0.241-0.151 0.313-0.467 0.165-0.711-0.151-0.241-0.471-0.313-0.712-0.165-0.241 0.151-0.316 0.471-0.165 0.712 0.096 0.158 0.265 0.244 0.437 0.244z" />
        <path class="path5" d="M8.025 12.322c0.096 0 0.189-0.024 0.275-0.076 0.241-0.151 0.316-0.471 0.165-0.711-0.151-0.241-0.471-0.316-0.712-0.165-0.241 0.151-0.316 0.468-0.165 0.712 0.097 0.155 0.265 0.241 0.437 0.241z" />
        <path class="path6" d="M11.983 26.161c-0.282 0.014-0.502 0.258-0.485 0.543 0.014 0.275 0.241 0.488 0.512 0.488 0.011 0 0.021 0 0.031-0.004 0.282-0.014 0.502-0.258 0.484-0.539-0.013-0.285-0.258-0.505-0.543-0.488z" />
        <path class="path7" d="M11.608 28.764c0.014 0.275 0.241 0.488 0.516 0.488 0.007 0 0.018 0 0.027 0 0.282-0.017 0.502-0.258 0.488-0.543-0.017-0.285-0.261-0.502-0.543-0.488-0.285 0.017-0.505 0.258-0.488 0.543z" />
        <path class="path8" d="M11.543 17.92c-0.285 0.018-0.505 0.262-0.488 0.543 0.014 0.275 0.241 0.488 0.512 0.488 0.010 0 0.021 0 0.031 0 0.282-0.014 0.502-0.258 0.485-0.543-0.013-0.282-0.258-0.502-0.54-0.488z" />
        <path class="path9" d="M11.873 24.102c-0.282 0.014-0.502 0.258-0.488 0.543 0.017 0.275 0.244 0.488 0.516 0.488 0.010 0 0.021-0.003 0.027-0.003 0.285-0.014 0.505-0.258 0.488-0.54-0.014-0.285-0.258-0.505-0.543-0.488z" />
        <path class="path10" d="M11.653 19.983c-0.285 0.014-0.502 0.258-0.488 0.543 0.013 0.275 0.244 0.488 0.516 0.488 0.010 0 0.017-0.003 0.027-0.003 0.285-0.014 0.502-0.258 0.488-0.543-0.018-0.282-0.261-0.502-0.543-0.485z" />
        <path class="path11" d="M11.429 15.86c-0.282 0.017-0.502 0.258-0.485 0.543 0.014 0.275 0.241 0.489 0.512 0.489 0.010 0 0.021 0 0.031 0 0.282-0.018 0.502-0.258 0.485-0.543-0.014-0.285-0.258-0.502-0.543-0.488z" />
        <path class="path12" d="M11.763 22.042c-0.285 0.014-0.502 0.258-0.488 0.543 0.013 0.275 0.244 0.485 0.516 0.485 0.010 0 0.017 0 0.027 0 0.285-0.014 0.502-0.258 0.488-0.543-0.018-0.282-0.258-0.502-0.543-0.485z" />
        <path class="path13" d="M12.331 30.291c-0.027-0.005-0.054-0.007-0.083-0.008-0.005 0-0.009-0.001-0.015-0.001-0.001 0-0.003 0.001-0.005 0.001-0.007 0-0.015-0.002-0.023-0.001-0.020 0.001-0.039 0.006-0.058 0.009-0.409 0.041-0.732 0.367-0.766 0.778-0.511 0.063-1.306 0.066-1.844 0.009-0.021-0.285-0.18-0.531-0.412-0.67l0.762-14.217c0.010-0.19-0.135-0.351-0.325-0.362-0.189-0.007-0.352 0.135-0.362 0.325l-0.759 14.167c-0.356 0.105-0.617 0.431-0.617 0.821 0 0.475 0.385 0.86 0.86 0.86 0.244 0 0.463-0.103 0.619-0.266 0.325 0.050 0.715 0.076 1.109 0.076 0.427 0 0.851-0.030 1.192-0.088 0.157 0.17 0.38 0.278 0.629 0.278 0.475 0 0.86-0.385 0.86-0.86 0-0.441-0.334-0.801-0.762-0.85z" />
    </symbol>

    <symbol id="shape-energy" viewBox="0 0 27 32">
     <path class="path1" d="M13.479 3.115c0 0.313-0.254 0.567-0.567 0.567s-0.567-0.254-0.567-0.567c0-0.313 0.254-0.567 0.567-0.567s0.567 0.254 0.567 0.567z"></path>
    <path class="path2" d="M12.912 0.278c-0.314 0-0.567 0.253-0.567 0.568s0.253 0.567 0.567 0.567 0.567-0.254 0.567-0.567c0-0.315-0.253-0.568-0.567-0.568z"></path>
    <path class="path3" d="M20.6 2.809c-0.254-0.186-0.609-0.128-0.795 0.125s-0.128 0.605 0.128 0.791c0.099 0.075 0.216 0.11 0.333 0.11 0.174 0 0.345-0.079 0.458-0.235 0.185-0.254 0.129-0.61-0.125-0.791z"></path>
    <path class="path4" d="M19.264 4.644c-0.254-0.185-0.609-0.128-0.791 0.125-0.185 0.254-0.128 0.61 0.125 0.795 0.098 0.072 0.216 0.106 0.333 0.106 0.174 0 0.348-0.079 0.458-0.234 0.185-0.253 0.128-0.605-0.125-0.791z"></path>
    <path class="path5" d="M24.613 9.006c-0.299 0.098-0.461 0.42-0.363 0.715 0.076 0.242 0.299 0.393 0.537 0.393 0.060 0 0.118-0.008 0.178-0.026 0.299-0.099 0.462-0.417 0.363-0.715s-0.416-0.462-0.715-0.367z"></path>
    <path class="path6" d="M22.453 9.71c-0.299 0.095-0.462 0.415-0.363 0.714 0.079 0.238 0.299 0.39 0.541 0.39 0.057 0 0.118-0.008 0.174-0.027 0.299-0.098 0.462-0.415 0.364-0.715-0.095-0.299-0.417-0.462-0.716-0.363z"></path>
    <path class="path7" d="M3.302 9.615c-0.299-0.098-0.62 0.065-0.719 0.364-0.095 0.299 0.068 0.616 0.367 0.714 0.057 0.019 0.117 0.027 0.174 0.027 0.242 0 0.461-0.151 0.541-0.39 0.095-0.299-0.068-0.62-0.363-0.715z"></path>
    <path class="path8" d="M1.141 8.916c-0.299-0.098-0.62 0.064-0.715 0.363-0.099 0.299 0.068 0.617 0.363 0.715 0.061 0.019 0.117 0.027 0.177 0.027 0.238 0 0.462-0.151 0.537-0.394 0.099-0.294-0.064-0.616-0.363-0.71z"></path>
    <path class="path9" d="M6.541 4.584c-0.254 0.185-0.311 0.541-0.125 0.795 0.113 0.151 0.284 0.235 0.461 0.235 0.113 0 0.231-0.039 0.333-0.11 0.253-0.186 0.31-0.541 0.125-0.795-0.186-0.252-0.541-0.306-0.795-0.124z"></path>
    <path class="path10" d="M5.874 3.668c0.254-0.185 0.31-0.541 0.125-0.794s-0.541-0.31-0.791-0.125c-0.254 0.186-0.31 0.541-0.125 0.794 0.11 0.151 0.284 0.234 0.458 0.234 0.114-0 0.231-0.037 0.333-0.109z"></path>
    <path class="path11" d="M12.918 5.616c-4.177 0-7.574 3.397-7.574 7.575 0 1.718 0.591 3.401 1.664 4.738 0.138 0.173 0.294 0.343 0.458 0.52 0.578 0.631 1.233 1.345 1.483 2.687l0.418 2.231c0.034 0.179 0.19 0.309 0.372 0.309h1.892c0.111 0 0.218-0.050 0.29-0.135s0.103-0.199 0.083-0.309l-1.499-8.572c0.263 0.137 0.558 0.221 0.875 0.221 0.632 0 1.189-0.311 1.538-0.784 0.35 0.473 0.906 0.784 1.539 0.784 0.314 0 0.605-0.083 0.867-0.217l-1.512 8.567c-0.019 0.111 0.011 0.224 0.083 0.309 0.072 0.086 0.178 0.136 0.29 0.136h1.705c0.17 0 0.319-0.114 0.365-0.277 0.022-0.080 0.544-1.949 0.629-2.287 0.327-1.298 0.988-2.065 1.571-2.741 0.131-0.152 0.258-0.299 0.374-0.444 1.073-1.336 1.664-3.019 1.664-4.738 0.001-4.177-3.397-7.574-7.574-7.574zM18.238 17.455c-0.111 0.139-0.231 0.278-0.357 0.423-0.607 0.703-1.362 1.579-1.732 3.051-0.064 0.253-0.395 1.443-0.547 1.991h-0.968l1.674-9.489c0.019-0.073 0.030-0.149 0.040-0.224l0.005-0.028c0.001-0.006-0.001-0.011-0-0.017 0.007-0.066 0.020-0.13 0.020-0.198 0-0.209-0.169-0.378-0.378-0.378s-0.378 0.169-0.378 0.378c0 0.031-0.007 0.061-0.009 0.092l-0.039 0.221c-0.138 0.487-0.581 0.847-1.112 0.847-0.442 0-0.823-0.251-1.018-0.616 0.272-0.166 0.456-0.463 0.456-0.805 0-0.523-0.424-0.946-0.946-0.946s-0.946 0.423-0.946 0.946c0 0.323 0.163 0.608 0.41 0.778-0.191 0.38-0.58 0.643-1.033 0.643-0.545 0-1.001-0.381-1.124-0.889l-0.019-0.107c-0.008-0.054-0.017-0.108-0.017-0.165 0-0.209-0.169-0.378-0.378-0.378-0.191 0-0.341 0.143-0.368 0.326-0.005 0.017-0.007 0.033-0.010 0.051l-0 0.001c0 0.001 0 0.002 0 0.002-0.005 0.038-0.010 0.077-0.003 0.117l0.036 0.203c0.005 0.033 0.010 0.066 0.017 0.098l1.667 9.535h-1.127l-0.36-1.922c-0.29-1.556-1.055-2.39-1.669-3.060-0.152-0.165-0.296-0.323-0.425-0.482-0.98-1.221-1.498-2.696-1.498-4.264 0-3.76 3.059-6.818 6.817-6.818s6.818 3.058 6.818 6.818c0 1.569-0.518 3.044-1.498 4.264z"></path>
    <path class="path12" d="M15.545 24.844h-5.263c-0.209 0-0.378 0.169-0.378 0.379v1.061c0 0.209 0.169 0.378 0.378 0.378s0.378-0.169 0.378-0.378v-0.684h4.506v0.411l-4.888 1.617c-0.198 0.066-0.306 0.28-0.241 0.478 0.053 0.159 0.2 0.259 0.36 0.259 0.039 0 0.079-0.007 0.119-0.019l5.147-1.703c0.155-0.052 0.259-0.196 0.259-0.36v-1.061c-0-0.209-0.17-0.379-0.378-0.379z"></path>
    <path class="path13" d="M15.904 27.953c-0.067-0.198-0.281-0.304-0.48-0.237l-5.255 1.78c-0.128 0.043-0.224 0.152-0.25 0.285s0.021 0.27 0.123 0.359l1.672 1.453c0.069 0.060 0.157 0.093 0.248 0.093h1.906c0.091 0 0.179-0.033 0.248-0.093l1.672-1.453c0.158-0.138 0.174-0.377 0.037-0.534s-0.376-0.173-0.534-0.037l-1.565 1.36h-1.623l-1.068-0.928 4.63-1.568c0.197-0.068 0.303-0.283 0.236-0.48z"></path>
    </symbol>

    <symbol id="shape-aerospace" viewBox="0 0 58 32">
        <path class="path1" d="M56.917 4.499c-0.407-0.914-2.522-2.555-4.742-3.381-1.877-0.698-3.573-0.736-4.906-0.108-1.997 0.94-5.338 2.527-9.298 4.469-0.257-0.339-0.66-0.562-1.119-0.562-0.338 0-0.643 0.124-0.886 0.322-3.658-0.573-8.979-1.168-11.739-1.477l-0.802-0.090-0.082 0.015c-0.842 0.157-3.022 0.608-4.326 1.273-0.238-0.185-0.534-0.299-0.859-0.299-0.778 0-1.409 0.63-1.409 1.409s0.63 1.409 1.409 1.409 1.409-0.63 1.409-1.409c0-0.047-0.010-0.092-0.014-0.138 0.806-0.364 2.422-0.838 3.915-1.122l0.635 0.071c2.667 0.298 7.732 0.865 11.344 1.416 0 0.009-0.003 0.017-0.003 0.026 0 0.13 0.023 0.253 0.056 0.372-1.246 0.617-2.531 1.26-3.842 1.924-1.021 0.517-2.066 1.064-3.104 1.616-0.258-0.316-0.646-0.522-1.086-0.522-0.778 0-1.409 0.63-1.409 1.409 0 0.145 0.028 0.282 0.069 0.414-0.686 0.372-1.36 0.739-2.007 1.091-3.67 1.999-7.136 3.888-8.157 4.042-1.321 0.2-3.668-0.414-5.738-0.956-1.951-0.51-3.637-0.95-4.716-0.854l-0.128 0.026c-1.011 0.337-1.979 0.815-2.703 1.214-0.21-0.121-0.449-0.196-0.708-0.196-0.778 0-1.409 0.63-1.409 1.409s0.63 1.409 1.409 1.409c0.281 0 0.541-0.084 0.762-0.227 2.329 1.285 7.34 4.062 10.042 5.662 0.068 0.716 0.663 1.277 1.396 1.277 0.58 0 1.077-0.35 1.293-0.851 2.642-0.516 7.142-1.99 11.056-3.509 0.234 0.172 0.519 0.277 0.832 0.277 0.778 0 1.409-0.63 1.409-1.409s-0.63-1.409-1.409-1.409-1.409 0.63-1.409 1.409c0 0.048 0.010 0.093 0.014 0.14-3.701 1.428-7.991 2.841-10.508 3.359-0.223-0.486-0.71-0.825-1.279-0.825-0.407 0-0.77 0.175-1.027 0.45-2.73-1.608-7.48-4.241-9.788-5.515 0.014-0.078 0.025-0.157 0.025-0.239 0-0.1-0.011-0.198-0.032-0.292 0.647-0.352 1.472-0.754 2.323-1.043 0.908-0.054 2.614 0.394 4.268 0.827 2.282 0.597 4.64 1.218 6.191 0.979 1.158-0.175 3.995-1.698 8.527-4.166 0.717-0.391 1.469-0.8 2.232-1.212 0.176 0.079 0.371 0.126 0.576 0.126 0.699 0 1.275-0.51 1.385-1.179 1.108-0.59 2.224-1.176 3.313-1.726 1.393-0.704 2.757-1.385 4.074-2.038 0.186 0.091 0.392 0.145 0.612 0.145 0.682 0 1.251-0.485 1.38-1.128 4.056-1.992 7.483-3.62 9.516-4.577 1.33-0.626 2.928-0.267 4.034 0.145 2.232 0.83 3.911 2.347 4.106 2.783 0.121 0.271-0.366 0.974-3.376 2.784-0.225 0.136-0.432 0.26-0.605 0.368-2.138 1.332-6.148 3.266-8.643 4.355-0.242-0.198-0.548-0.321-0.885-0.321-0.778 0-1.409 0.63-1.409 1.409s0.63 1.409 1.409 1.409c0.779 0 1.409-0.63 1.409-1.409 0-0.028-0.007-0.055-0.008-0.083 2.331-1.022 6.384-2.946 8.723-4.403 0.17-0.106 0.37-0.226 0.59-0.359 1.898-1.14 4.497-2.702 3.826-4.207z"></path>
        <path class="path2" d="M21.263 8.663c0.31 0 0.608-0.169 0.755-0.462 0.214-0.417 0.045-0.924-0.372-1.138-0.417-0.208-0.924-0.039-1.138 0.378-0.208 0.411-0.039 0.924 0.378 1.132 0.118 0.063 0.248 0.090 0.378 0.090z"></path>
        <path class="path3" d="M24.278 10.201c0.304 0 0.597-0.169 0.749-0.456 0.214-0.417 0.051-0.924-0.361-1.138-0.417-0.22-0.924-0.056-1.138 0.361-0.214 0.411-0.056 0.924 0.361 1.138 0.124 0.062 0.254 0.096 0.389 0.096z"></path>
        <path class="path4" d="M37.439 22.016c-0.4-0.243-0.919-0.119-1.161 0.276-0.006 0-0.006 0-0.006 0-0.242 0.4-0.118 0.918 0.282 1.166 0.135 0.084 0.287 0.124 0.439 0.124 0.287 0 0.563-0.146 0.721-0.406 0.243-0.394 0.119-0.918-0.275-1.16z"></path>
        <path class="path5" d="M35.659 24.895c-0.394-0.254-0.918-0.135-1.166 0.259-0.254 0.389-0.141 0.913 0.254 1.166 0.141 0.090 0.299 0.129 0.456 0.129 0.276 0 0.547-0.135 0.71-0.388 0.252-0.389 0.134-0.913-0.254-1.166z"></path>
        <path class="path6" d="M39.18 19.115c-0.4-0.242-0.918-0.107-1.161 0.293-0.237 0.4-0.106 0.919 0.294 1.161 0.135 0.079 0.287 0.118 0.434 0.118 0.288 0 0.57-0.146 0.727-0.411 0.242-0.406 0.107-0.925-0.293-1.161z"></path>
        <path class="path7" d="M40.893 16.196c-0.4-0.237-0.918-0.101-1.155 0.304-0.237 0.4-0.096 0.918 0.304 1.155 0.135 0.079 0.282 0.113 0.423 0.113 0.294 0 0.58-0.153 0.733-0.423 0.237-0.4 0.101-0.918-0.304-1.149z"></path>
        <path class="path8" d="M32.983 27.326c-0.779 0-1.409 0.63-1.409 1.409 0 0.011 0.003 0.020 0.003 0.030-0.918 0.567-1.922 1.107-2.564 1.372 2.489-7.397 4.333-14.697 4.352-14.772 0.076-0.302-0.107-0.608-0.409-0.684s-0.608 0.107-0.684 0.409c-0.019 0.077-1.955 7.741-4.521 15.265-0.225 0.545 0.084 0.843 0.185 0.921 0.116 0.090 0.274 0.13 0.464 0.13 0.896 0 2.497-0.886 3.661-1.614 0.247 0.216 0.567 0.351 0.922 0.351 0.778 0 1.409-0.63 1.409-1.409s-0.63-1.409-1.409-1.409z"></path>
    </symbol>

    <symbol id="shape-other" viewBox="0 0 49 32">
        <path class="path1" d="M44.994 14.119c0 0.477-0.387 0.864-0.864 0.864s-0.864-0.387-0.864-0.864c0-0.477 0.387-0.864 0.864-0.864s0.864 0.387 0.864 0.864z"></path>
        <path class="path2" d="M47.65 16.787c-0.484 0-0.864 0.386-0.864 0.864s0.38 0.864 0.864 0.864c0.473 0 0.859-0.386 0.859-0.864s-0.386-0.864-0.859-0.864z"></path>
        <path class="path3" d="M47.65 14.995c0.473 0 0.859-0.392 0.859-0.87 0-0.473-0.386-0.864-0.859-0.864-0.484 0-0.864 0.392-0.864 0.864 0 0.478 0.381 0.87 0.864 0.87z"></path>
        <path class="path4" d="M47.65 23.84c-0.484 0-0.864 0.386-0.864 0.864 0 0.473 0.38 0.864 0.864 0.864 0.473 0 0.859-0.392 0.859-0.864 0.001-0.478-0.386-0.864-0.859-0.864z"></path>
        <path class="path5" d="M47.65 27.361c-0.484 0-0.864 0.386-0.864 0.864s0.38 0.864 0.864 0.864c0.473 0 0.859-0.386 0.859-0.864s-0.386-0.864-0.859-0.864z"></path>
        <path class="path6" d="M44.262 27.505c-0.478 0-0.864 0.386-0.864 0.864 0 0.472 0.386 0.864 0.864 0.864s0.864-0.392 0.864-0.864c0-0.478-0.386-0.864-0.864-0.864z"></path>
        <path class="path7" d="M47.65 20.314c-0.484 0-0.864 0.386-0.864 0.864s0.38 0.864 0.864 0.864c0.473 0 0.859-0.386 0.859-0.864s-0.386-0.864-0.859-0.864z"></path>
        <path class="path8" d="M4.67 27.791h-2.941v-13.096h2.941c0.318 0 0.576-0.258 0.576-0.576s-0.258-0.576-0.576-0.576h-3.517c-0.318 0-0.576 0.258-0.576 0.576v14.248c0 0.319 0.258 0.576 0.576 0.576h3.517c0.318 0 0.576-0.258 0.576-0.576s-0.258-0.576-0.576-0.576z"></path>
        <path class="path9" d="M15.838 2.593h7.182c0.145 0.332 0.411 0.598 0.743 0.743v7.222c-0.332 0.145-0.598 0.411-0.743 0.743h-6.378c-0.318 0-0.576 0.258-0.576 0.576v3.89c-0.331 0.145-0.597 0.411-0.742 0.743h-10.219c-0.318 0-0.576 0.258-0.576 0.576s0.258 0.576 0.576 0.576h10.219c0.222 0.508 0.728 0.864 1.319 0.864s1.097-0.356 1.319-0.864h12.756c0.222 0.508 0.729 0.864 1.319 0.864s1.097-0.356 1.319-0.864h10.339c0.319 0 0.576-0.258 0.576-0.576s-0.258-0.576-0.576-0.576h-10.339c-0.145-0.332-0.411-0.598-0.743-0.743v-3.89c0-0.318-0.258-0.576-0.576-0.576h-6.379c-0.145-0.332-0.411-0.598-0.743-0.743v-7.222c0.332-0.145 0.598-0.411 0.743-0.743h7.183c0.319 0 0.576-0.258 0.576-0.576s-0.258-0.576-0.576-0.576h-7.183c-0.222-0.508-0.728-0.864-1.319-0.864s-1.097 0.356-1.319 0.864h-7.182c-0.318 0-0.576 0.258-0.576 0.576s0.258 0.576 0.576 0.576zM31.461 15.767c-0.331 0.145-0.598 0.411-0.743 0.743h-12.756c-0.145-0.332-0.411-0.598-0.743-0.743v-3.313h5.802c0.222 0.508 0.728 0.864 1.319 0.864s1.097-0.356 1.319-0.864h5.802v3.314z"></path>
        <path class="path10" d="M33.356 25.975h10.338c0.319 0 0.576-0.258 0.576-0.576s-0.258-0.576-0.576-0.576h-10.338c-0.222-0.509-0.729-0.864-1.319-0.864-0.796 0-1.441 0.645-1.441 1.441 0 0.59 0.356 1.097 0.864 1.319v3.553h-14.242v-3.553c0.509-0.222 0.865-0.728 0.865-1.319 0-0.796-0.645-1.441-1.441-1.441-0.591 0-1.097 0.356-1.319 0.864h-10.219c-0.318 0-0.576 0.258-0.576 0.576s0.258 0.576 0.576 0.576h10.219c0.145 0.331 0.411 0.597 0.742 0.742v4.13c0 0.319 0.258 0.576 0.576 0.576h15.395c0.319 0 0.576-0.258 0.576-0.576v-4.129c0.332-0.145 0.598-0.411 0.743-0.743z"></path>
        <path class="path11" d="M19.973 25.402c0 0.473 0.386 0.864 0.864 0.864s0.864-0.392 0.864-0.864c0-0.478-0.386-0.87-0.864-0.87s-0.864 0.392-0.864 0.87z"></path>
        <path class="path12" d="M23.5 25.402c0 0.473 0.386 0.864 0.864 0.864 0.472 0 0.864-0.392 0.864-0.864 0-0.478-0.392-0.87-0.864-0.87-0.478 0-0.864 0.392-0.864 0.87z"></path>
        <path class="path13" d="M27.026 25.402c0 0.473 0.38 0.864 0.864 0.864 0.473 0 0.859-0.392 0.859-0.864 0-0.478-0.386-0.87-0.859-0.87-0.483 0-0.864 0.392-0.864 0.87z"></path>
    </symbol>

</svg>
