<?xml version="1.0" encoding="utf-8"?>
<!-- Generator: Adobe Illustrator 17.0.0, SVG Export Plug-In . SVG Version: 6.00 Build 0)  -->
<!DOCTYPE svg PUBLIC "-//W3C//DTD SVG 1.1//EN" "http://www.w3.org/Graphics/SVG/1.1/DTD/svg11.dtd">
<svg version="1.1" id="Layer_1" xmlns="http://www.w3.org/2000/svg" xmlns:xlink="http://www.w3.org/1999/xlink" x="0px" y="0px"
	 width="28.338px" height="58.846px" viewBox="2.359 -30.154 28.338 58.846" enable-background="new 2.359 -30.154 28.338 58.846"
	 xml:space="preserve">
<g>
	<path fill="#FFFFFF" d="M4.359,22.116h1.576l1.936-2.01l-3.512,0.01c0.019,0,0-9.999,0-9.999c0-0.017,6.484,0.014,6.484,0.014
		h0.615l0.472-0.385l9.427-5.628v1.983l2-2.077V3.119c0-1.835-1.804-2-3.232-0.835l-9.767,5.834H4.359c-0.929,0-2,1.08-2,2.019
		v9.956C2.359,21.013,3.443,22.116,4.359,22.116z"/>
	<path fill="#FFFFFF" d="M21.357,12.711v13.405l-8.194-4.896l-1.572,1.633l8.534,5.094c1.433,1.169,3.232,1.013,3.232-0.83V10.634
		L21.357,12.711z"/>
</g>
<g>
	<g>
		<path fill="#FFFFFF" d="M20.125-29.415l-9.767,5.834H4.359c-0.929,0-2,1.08-2,2.019v9.956c0,0.92,1.084,2.024,2,2.024h5.999
			l9.767,5.83c1.433,1.169,3.232,1.013,3.232-0.83V-28.58C23.356-30.415,21.552-30.58,20.125-29.415z M21.357-5.583l-9.428-5.633
			l-0.472-0.385h-0.614l-6.484,0.019c0.019,0,0-9.999,0-9.999c0-0.017,6.484,0.014,6.484,0.014h0.615l0.471-0.385l9.427-5.628
			L21.357-5.583L21.357-5.583z"/>
	</g>
</g>
<path fill="#FFFFFF" d="M4.7,28.692l-1.718-1.695L28.979,0l1.718,1.696L4.7,28.692"/>
</svg>
