<?xml version="1.0" encoding="utf-8"?>
<!-- Generator: Adobe Illustrator 18.1.1, SVG Export Plug-In . SVG Version: 6.00 Build 0)  -->
<svg version="1.1" id="Layer_1" xmlns="http://www.w3.org/2000/svg" xmlns:xlink="http://www.w3.org/1999/xlink" x="0px" y="0px"
	 viewBox="0 321.6 230.1 148.7" enable-background="new 0 321.6 230.1 148.7" xml:space="preserve">
<g>
	<path fill="#004B85" d="M0,321.6v148.7h230.1V321.6H0z M113.4,344l1.6-5.2l2.1,5.2h5.3l-4.2,3.7l1.6,5.2l-4.8-3.1l-4.2,3.1l1.1-5.2
		l-4.2-3.7H113.4z M70.3,369.3l2.1-5.2l1.6,5.2l5.9,0.5l-4.3,3.2l1.6,5.7l-4.8-3.1l-4.8,3.1l1.6-5.7l-4.2-3.1L70.3,369.3z
		 M59.1,402.5l1.1-5.2l-4.2-3.1l5.9-0.5l1.6-5.2l2.1,5.2l5.3,0.5l-4.2,3.1l1.6,5.2l-4.8-3.1L59.1,402.5z M77.2,427.8l-4.8-3.1
		l-4.2,3.1l1.6-5.2L65,419h5.9l1.6-5.7l2.1,5.7h5.9l-4.8,3.7L77.2,427.8z M86.8,350.6l2.1-5.2l2.1,5.2l5.3,0.5l-4.2,3.1l1.6,5.7
		l-4.8-3.1l-4.8,3.1l1.6-5.7l-4.2-3.1L86.8,350.6z M94.2,445.5l-4.8-3.1l-4.2,3.1l1.1-5.2l-4.2-3.7h5.9l1.6-5.7l2.1,5.7h5.3
		l-4.2,3.7L94.2,445.5z M120.4,452.8l-4.8-3.1l-4.8,3.1l1.6-5.2l-4.8-3.7h5.9l2.1-5.7l1.6,5.7h5.9l-4.8,3.7L120.4,452.8z
		 M138.4,350.2l1.6-5.2l2.1,5.2l5.3,0.5l-4.2,3.1l1.6,5.7l-4.8-3.6l-4.8,3.1l1.6-5.2l-4.2-3.7L138.4,350.2L138.4,350.2z
		 M146.4,444.9l-4.8-3.1l-4.8,3.1l1.6-5.7l-4.8-3.1l5.9-0.5l2.1-5.2l1.6,5.2l5.9,0.5l-4.2,3.1L146.4,444.9z M155,368.3l2.1-5.2
		l1.6,5.2l5.9,0.5l-4.2,3.1l1.6,5.7l-4.8-3.1l-4.8,3.1l1.6-5.7l-4.2-3.1L155,368.3z M163,426.9l-4.8-3.1l-4.2,3.1l1.1-5.2l-4.2-3.7
		h5.9l1.6-5.7l2.1,5.7h5.3l-4.2,3.7L163,426.9z M171.4,402.5l-4.8-3.1l-4.8,3.1l1.6-5.7l-4.8-3.1l5.9-0.5l2.1-5.2l1.6,5.2l5.9,0.5
		l-4.2,3.1L171.4,402.5z"/>
</g>
</svg>
