<?xml version="1.0" encoding="utf-8"?>
<!-- Generator: Adobe Illustrator 18.1.1, SVG Export Plug-In . SVG Version: 6.00 Build 0)  -->
<svg version="1.1" id="Layer_1" xmlns="http://www.w3.org/2000/svg" xmlns:xlink="http://www.w3.org/1999/xlink" x="0px" y="0px"
	 viewBox="0 612.5 612 228.1" enable-background="new 0 612.5 612 228.1" xml:space="preserve">
<g>
	<polygon fill="#A8A6A6" points="224.6,838 261.9,838 261.9,684.5 262.7,684.5 362.4,838 402.2,838 402.2,629.1 365.9,629.1 
		365.9,783.3 365.9,783.3 265.4,629.1 224.6,629.1 	"/>
	<path fill="#A8A6A6" d="M108.4,625.6C48.6,625.6,0,674.1,0,733.1c0,59.8,48.6,108.4,108.4,107.5c58.9,0,107.5-47.7,107.5-107.5
		C215.9,674.2,168.2,625.6,108.4,625.6z M107.5,813.7c-43.4-0.9-79.7-36.4-79.7-79.7c0-44.2,35.5-79.7,79.7-79.7
		c44.2,0,79.7,35.5,79.7,79.7C187.2,778.2,151.7,813.7,107.5,813.7z"/>
	<polygon fill="#45BFBB" points="76.2,612.5 132.7,737.5 84.1,749.6 	"/>
	<path fill="#45BFBB" d="M611.1,807.6H509.7c6.1-18.2,31.3-31.3,55.4-47.7c23.4-16.4,46.8-37.2,46.8-70.3
		c0-26.9-16.4-64.2-66.8-64.2c-46.8,0-72,34.6-72,80.6h33.7c0.9-29.5,8.7-52.1,35.5-52.1c29.5,0,35.5,21.7,35.5,37.2
		c-0.9,32.2-35.5,48.6-62.4,68.5c-27.8,19.1-46,45.1-46,78.8h142.1v-31.3h-0.5V807.6z"/>
	<rect x="416.2" y="798.2" fill="#45BFBB" width="41.6" height="39.9"/>
</g>
</svg>
